<svg width="128" height="128" viewBox="0 0 128 128" fill="none" xmlns="http://www.w3.org/2000/svg">
<circle cx="64" cy="64" r="63.5" stroke="#1A4279"/>
<circle cx="64" cy="64" r="60" fill="#1A4279"/>
<path d="M30.0461 57.88C30.0461 57.16 30.0994 56.4933 30.2061 55.88C30.3394 55.2667 30.4994 54.6933 30.6861 54.16L33.2461 47.6C33.5128 46.9333 33.8061 46.3733 34.1261 45.92C34.4461 45.44 35.0061 45.2 35.8061 45.2H39.7261C40.4728 45.2 41.0061 45.44 41.3261 45.92C41.6461 46.3733 41.9528 46.9467 42.2461 47.64L45.0061 54.16C45.1928 54.6933 45.3394 55.2667 45.4461 55.88C45.5794 56.4933 45.6461 57.16 45.6461 57.88V59.12H30.0461V57.88ZM36.4461 49.6L34.5661 55.68H40.8461L38.9661 49.6C38.8594 49.36 38.7394 49.1867 38.6061 49.08C38.4994 48.9733 38.3661 48.92 38.2061 48.92H37.2061C37.0461 48.92 36.8994 48.9733 36.7661 49.08C36.6594 49.1867 36.5528 49.36 36.4461 49.6ZM45.6461 66.4H46.0461V57.88C46.0461 57.1333 45.9794 56.4533 45.8461 55.84C45.7394 55.2 45.5794 54.5867 45.3661 54L42.6061 47.48C42.2861 46.7067 41.9394 46.0667 41.5661 45.56C41.2194 45.0533 40.6061 44.8 39.7261 44.8H35.8061C34.8994 44.8 34.2594 45.0533 33.8861 45.56C33.5128 46.0667 33.1794 46.6933 32.8861 47.44L30.3261 54C30.1128 54.5867 29.9394 55.2 29.8061 55.84C29.6994 56.4533 29.6461 57.1333 29.6461 57.88V66.4H30.0461V59.52H45.6461V66.4ZM34.1661 68.56C34.1661 69.0667 34.0461 69.44 33.8061 69.68C33.5928 69.8933 33.2328 70 32.7261 70H26.8461C26.3394 70 25.9661 69.8933 25.7261 69.68C25.5128 69.44 25.4061 69.0667 25.4061 68.56V58C25.4061 57.2 25.5261 56.28 25.7661 55.24C26.0328 54.2 26.4328 52.9867 26.9661 51.6L30.4461 42.52C30.6061 42.0667 30.8461 41.7333 31.1661 41.52C31.5128 41.3067 31.9528 41.2 32.4861 41.2H43.2461C43.7528 41.2 44.1661 41.3067 44.4861 41.52C44.8328 41.7333 45.0861 42.0667 45.2461 42.52L48.7261 51.6C49.2594 52.9867 49.6461 54.2 49.8861 55.24C50.1528 56.28 50.2861 57.2 50.2861 58V68.56C50.2861 69.0667 50.1661 69.44 49.9261 69.68C49.7128 69.8933 49.3528 70 48.8461 70H42.8061C42.2728 70 41.8728 69.8933 41.6061 69.68C41.3661 69.44 41.2461 69.0667 41.2461 68.56V62.96H34.1661V68.56ZM74.3848 70H64.6248C61.2915 70 58.8115 69.3333 57.1848 68C55.5848 66.6667 54.7848 64.6133 54.7848 61.84V49.4C54.7848 46.6267 55.5848 44.5733 57.1848 43.24C58.8115 41.88 61.2915 41.2 64.6248 41.2H74.3848C74.8915 41.2 75.2515 41.32 75.4648 41.56C75.7048 41.7733 75.8248 42.1333 75.8248 42.64V47.48C75.8248 47.9867 75.7048 48.36 75.4648 48.6C75.2515 48.8133 74.8915 48.92 74.3848 48.92H66.3448C65.5182 48.92 64.9048 49.0933 64.5048 49.44C64.1048 49.76 63.9048 50.2533 63.9048 50.92V60.44C63.9048 61.1067 64.1048 61.6 64.5048 61.92C64.9048 62.2133 65.5182 62.36 66.3448 62.36H74.3848C74.8915 62.36 75.2515 62.48 75.4648 62.72C75.7048 62.9333 75.8248 63.2933 75.8248 63.8V68.56C75.8248 69.0667 75.7048 69.44 75.4648 69.68C75.2515 69.8933 74.8915 70 74.3848 70ZM72.1848 66H65.5048C63.1048 66 61.5048 65.64 60.7048 64.92C59.9048 64.2 59.5048 62.9733 59.5048 61.24V50.04C59.5048 48.28 59.9182 47.04 60.7448 46.32C61.5715 45.5733 63.1582 45.2 65.5048 45.2H72.1848V44.8H65.5048C62.9448 44.8 61.2382 45.2 60.3848 46C59.5315 46.8 59.1048 48.1467 59.1048 50.04V61.24C59.1048 63.08 59.5182 64.4 60.3448 65.2C61.1982 66 62.9182 66.4 65.5048 66.4H72.1848V66ZM100.342 70H81.782C81.2754 70 80.902 69.8933 80.662 69.68C80.4487 69.44 80.342 69.0667 80.342 68.56V42.64C80.342 42.1333 80.4487 41.7733 80.662 41.56C80.902 41.32 81.2754 41.2 81.782 41.2H100.342C100.849 41.2 101.209 41.32 101.422 41.56C101.662 41.7733 101.782 42.1333 101.782 42.64V47.32C101.782 47.8267 101.662 48.2 101.422 48.44C101.209 48.6533 100.849 48.76 100.342 48.76H89.302V51.84H97.102C97.6087 51.84 97.9687 51.96 98.182 52.2C98.422 52.4133 98.542 52.7733 98.542 53.28V57.56C98.542 58.0667 98.422 58.44 98.182 58.68C97.9687 58.8933 97.6087 59 97.102 59H89.302V62.44H100.342C100.849 62.44 101.209 62.56 101.422 62.8C101.662 63.0133 101.782 63.3733 101.782 63.88V68.56C101.782 69.0667 101.662 69.44 101.422 69.68C101.209 69.8933 100.849 70 100.342 70ZM98.182 66H85.102V55.64H94.942V55.24H85.102V45.2H98.182V44.8H84.702V66.4H98.182V66Z" fill="white"/>
<path d="M54.929 88C50.3768 90.5366 64.0334 100 64.0334 100C64.0334 100 77.6901 90.5366 73.0311 88" stroke="white" stroke-width="20" stroke-linecap="round"/>
</svg>
