<svg width="37" height="36" viewBox="0 0 37 36" fill="none" xmlns="http://www.w3.org/2000/svg">
<circle cx="18.875" cy="18" r="17.5" stroke="#1A4279"/>
<circle cx="18.875" cy="18" r="16.875" fill="#1A4279"/>
<path d="M9.53455 15.667C9.53455 15.469 9.54922 15.2857 9.57855 15.117C9.61522 14.9483 9.65922 14.7907 9.71055 14.644L10.4146 12.84C10.4879 12.6567 10.5686 12.5027 10.6566 12.378C10.7446 12.246 10.8986 12.18 11.1186 12.18H12.1966C12.4019 12.18 12.5486 12.246 12.6366 12.378C12.7246 12.5027 12.8089 12.6603 12.8896 12.851L13.6486 14.644C13.6999 14.7907 13.7402 14.9483 13.7696 15.117C13.8062 15.2857 13.8246 15.469 13.8246 15.667V16.008H9.53455V15.667ZM11.2946 13.39L10.7776 15.062H12.5046L11.9876 13.39C11.9582 13.324 11.9252 13.2763 11.8886 13.247C11.8592 13.2177 11.8226 13.203 11.7786 13.203H11.5036C11.4596 13.203 11.4192 13.2177 11.3826 13.247C11.3532 13.2763 11.3239 13.324 11.2946 13.39ZM13.8246 18.01H13.9346V15.667C13.9346 15.4617 13.9162 15.2747 13.8796 15.106C13.8502 14.93 13.8062 14.7613 13.7476 14.6L12.9886 12.807C12.9006 12.5943 12.8052 12.4183 12.7026 12.279C12.6072 12.1397 12.4386 12.07 12.1966 12.07H11.1186C10.8692 12.07 10.6932 12.1397 10.5906 12.279C10.4879 12.4183 10.3962 12.5907 10.3156 12.796L9.61155 14.6C9.55288 14.7613 9.50522 14.93 9.46855 15.106C9.43922 15.2747 9.42455 15.4617 9.42455 15.667V18.01H9.53455V16.118H13.8246V18.01ZM10.6676 18.604C10.6676 18.7433 10.6346 18.846 10.5686 18.912C10.5099 18.9707 10.4109 19 10.2716 19H8.65455C8.51522 19 8.41255 18.9707 8.34655 18.912C8.28788 18.846 8.25855 18.7433 8.25855 18.604V15.7C8.25855 15.48 8.29155 15.227 8.35755 14.941C8.43088 14.655 8.54088 14.3213 8.68755 13.94L9.64455 11.443C9.68855 11.3183 9.75455 11.2267 9.84255 11.168C9.93788 11.1093 10.0589 11.08 10.2056 11.08H13.1646C13.3039 11.08 13.4176 11.1093 13.5056 11.168C13.6009 11.2267 13.6706 11.3183 13.7146 11.443L14.6716 13.94C14.8182 14.3213 14.9246 14.655 14.9906 14.941C15.0639 15.227 15.1006 15.48 15.1006 15.7V18.604C15.1006 18.7433 15.0676 18.846 15.0016 18.912C14.9429 18.9707 14.8439 19 14.7046 19H13.0436C12.8969 19 12.7869 18.9707 12.7136 18.912C12.6476 18.846 12.6146 18.7433 12.6146 18.604V17.064H10.6676V18.604ZM21.7277 19H19.0437C18.127 19 17.445 18.8167 16.9977 18.45C16.5577 18.0833 16.3377 17.5187 16.3377 16.756V13.335C16.3377 12.5723 16.5577 12.0077 16.9977 11.641C17.445 11.267 18.127 11.08 19.0437 11.08H21.7277C21.867 11.08 21.966 11.113 22.0247 11.179C22.0907 11.2377 22.1237 11.3367 22.1237 11.476V12.807C22.1237 12.9463 22.0907 13.049 22.0247 13.115C21.966 13.1737 21.867 13.203 21.7277 13.203H19.5167C19.2894 13.203 19.1207 13.2507 19.0107 13.346C18.9007 13.434 18.8457 13.5697 18.8457 13.753V16.371C18.8457 16.5543 18.9007 16.69 19.0107 16.778C19.1207 16.8587 19.2894 16.899 19.5167 16.899H21.7277C21.867 16.899 21.966 16.932 22.0247 16.998C22.0907 17.0567 22.1237 17.1557 22.1237 17.295V18.604C22.1237 18.7433 22.0907 18.846 22.0247 18.912C21.966 18.9707 21.867 19 21.7277 19ZM21.1227 17.9H19.2857C18.6257 17.9 18.1857 17.801 17.9657 17.603C17.7457 17.405 17.6357 17.0677 17.6357 16.591V13.511C17.6357 13.027 17.7494 12.686 17.9767 12.488C18.204 12.2827 18.6404 12.18 19.2857 12.18H21.1227V12.07H19.2857C18.5817 12.07 18.1124 12.18 17.8777 12.4C17.643 12.62 17.5257 12.9903 17.5257 13.511V16.591C17.5257 17.097 17.6394 17.46 17.8667 17.68C18.1014 17.9 18.5744 18.01 19.2857 18.01H21.1227V17.9ZM28.8659 19H23.7619C23.6226 19 23.5199 18.9707 23.4539 18.912C23.3953 18.846 23.3659 18.7433 23.3659 18.604V11.476C23.3659 11.3367 23.3953 11.2377 23.4539 11.179C23.5199 11.113 23.6226 11.08 23.7619 11.08H28.8659C29.0053 11.08 29.1043 11.113 29.1629 11.179C29.2289 11.2377 29.2619 11.3367 29.2619 11.476V12.763C29.2619 12.9023 29.2289 13.005 29.1629 13.071C29.1043 13.1297 29.0053 13.159 28.8659 13.159H25.8299V14.006H27.9749C28.1143 14.006 28.2133 14.039 28.2719 14.105C28.3379 14.1637 28.3709 14.2627 28.3709 14.402V15.579C28.3709 15.7183 28.3379 15.821 28.2719 15.887C28.2133 15.9457 28.1143 15.975 27.9749 15.975H25.8299V16.921H28.8659C29.0053 16.921 29.1043 16.954 29.1629 17.02C29.2289 17.0787 29.2619 17.1777 29.2619 17.317V18.604C29.2619 18.7433 29.2289 18.846 29.1629 18.912C29.1043 18.9707 29.0053 19 28.8659 19ZM28.2719 17.9H24.6749V15.051H27.3809V14.941H24.6749V12.18H28.2719V12.07H24.5649V18.01H28.2719V17.9Z" fill="white"/>
<path d="M16.3238 24.75C15.0435 25.4634 18.8844 28.125 18.8844 28.125C18.8844 28.125 22.7253 25.4634 21.415 24.75" stroke="white" stroke-width="6" stroke-linecap="round"/>
</svg>
