<svg width="32" height="32" viewBox="0 0 32 32" fill="none" xmlns="http://www.w3.org/2000/svg">
<circle cx="16" cy="16" r="15.75" stroke="#1A4279" stroke-width="0.5"/>
<circle cx="16.1111" cy="16" r="14.6667" fill="#1A4279"/>
<path d="M7.51152 12.97C7.51152 12.79 7.52486 12.6233 7.55152 12.47C7.58486 12.3167 7.62486 12.1733 7.67152 12.04L8.31152 10.4C8.37819 10.2333 8.45152 10.0933 8.53152 9.98C8.61152 9.86 8.75152 9.8 8.95152 9.8H9.93152C10.1182 9.8 10.2515 9.86 10.3315 9.98C10.4115 10.0933 10.4882 10.2367 10.5615 10.41L11.2515 12.04C11.2982 12.1733 11.3349 12.3167 11.3615 12.47C11.3949 12.6233 11.4115 12.79 11.4115 12.97V13.28H7.51152V12.97ZM9.11152 10.9L8.64152 12.42H10.2115L9.74152 10.9C9.71486 10.84 9.68486 10.7967 9.65152 10.77C9.62486 10.7433 9.59152 10.73 9.55152 10.73H9.30152C9.26152 10.73 9.22486 10.7433 9.19152 10.77C9.16486 10.7967 9.13819 10.84 9.11152 10.9ZM11.4115 15.1H11.5115V12.97C11.5115 12.7833 11.4949 12.6133 11.4615 12.46C11.4349 12.3 11.3949 12.1467 11.3415 12L10.6515 10.37C10.5715 10.1767 10.4849 10.0167 10.3915 9.89C10.3049 9.76333 10.1515 9.7 9.93152 9.7H8.95152C8.72486 9.7 8.56486 9.76333 8.47152 9.89C8.37819 10.0167 8.29486 10.1733 8.22152 10.36L7.58152 12C7.52819 12.1467 7.48486 12.3 7.45152 12.46C7.42486 12.6133 7.41152 12.7833 7.41152 12.97V15.1H7.51152V13.38H11.4115V15.1ZM8.54152 15.64C8.54152 15.7667 8.51152 15.86 8.45152 15.92C8.39819 15.9733 8.30819 16 8.18152 16H6.71152C6.58486 16 6.49152 15.9733 6.43152 15.92C6.37819 15.86 6.35152 15.7667 6.35152 15.64V13C6.35152 12.8 6.38152 12.57 6.44152 12.31C6.50819 12.05 6.60819 11.7467 6.74152 11.4L7.61152 9.13C7.65152 9.01667 7.71152 8.93333 7.79152 8.88C7.87819 8.82667 7.98819 8.8 8.12152 8.8H10.8115C10.9382 8.8 11.0415 8.82667 11.1215 8.88C11.2082 8.93333 11.2715 9.01667 11.3115 9.13L12.1815 11.4C12.3149 11.7467 12.4115 12.05 12.4715 12.31C12.5382 12.57 12.5715 12.8 12.5715 13V15.64C12.5715 15.7667 12.5415 15.86 12.4815 15.92C12.4282 15.9733 12.3382 16 12.2115 16H10.7015C10.5682 16 10.4682 15.9733 10.4015 15.92C10.3415 15.86 10.3115 15.7667 10.3115 15.64V14.24H8.54152V15.64ZM18.5962 16H16.1562C15.3229 16 14.7029 15.8333 14.2962 15.5C13.8962 15.1667 13.6962 14.6533 13.6962 13.96V10.85C13.6962 10.1567 13.8962 9.64333 14.2962 9.31C14.7029 8.97 15.3229 8.8 16.1562 8.8H18.5962C18.7229 8.8 18.8129 8.83 18.8662 8.89C18.9262 8.94333 18.9562 9.03333 18.9562 9.16V10.37C18.9562 10.4967 18.9262 10.59 18.8662 10.65C18.8129 10.7033 18.7229 10.73 18.5962 10.73H16.5862C16.3795 10.73 16.2262 10.7733 16.1262 10.86C16.0262 10.94 15.9762 11.0633 15.9762 11.23V13.61C15.9762 13.7767 16.0262 13.9 16.1262 13.98C16.2262 14.0533 16.3795 14.09 16.5862 14.09H18.5962C18.7229 14.09 18.8129 14.12 18.8662 14.18C18.9262 14.2333 18.9562 14.3233 18.9562 14.45V15.64C18.9562 15.7667 18.9262 15.86 18.8662 15.92C18.8129 15.9733 18.7229 16 18.5962 16ZM18.0462 15H16.3762C15.7762 15 15.3762 14.91 15.1762 14.73C14.9762 14.55 14.8762 14.2433 14.8762 13.81V11.01C14.8762 10.57 14.9795 10.26 15.1862 10.08C15.3929 9.89333 15.7895 9.8 16.3762 9.8H18.0462V9.7H16.3762C15.7362 9.7 15.3095 9.8 15.0962 10C14.8829 10.2 14.7762 10.5367 14.7762 11.01V13.81C14.7762 14.27 14.8795 14.6 15.0862 14.8C15.2995 15 15.7295 15.1 16.3762 15.1H18.0462V15ZM25.0855 16H20.4455C20.3188 16 20.2255 15.9733 20.1655 15.92C20.1122 15.86 20.0855 15.7667 20.0855 15.64V9.16C20.0855 9.03333 20.1122 8.94333 20.1655 8.89C20.2255 8.83 20.3188 8.8 20.4455 8.8H25.0855C25.2122 8.8 25.3022 8.83 25.3555 8.89C25.4155 8.94333 25.4455 9.03333 25.4455 9.16V10.33C25.4455 10.4567 25.4155 10.55 25.3555 10.61C25.3022 10.6633 25.2122 10.69 25.0855 10.69H22.3255V11.46H24.2755C24.4022 11.46 24.4922 11.49 24.5455 11.55C24.6055 11.6033 24.6355 11.6933 24.6355 11.82V12.89C24.6355 13.0167 24.6055 13.11 24.5455 13.17C24.4922 13.2233 24.4022 13.25 24.2755 13.25H22.3255V14.11H25.0855C25.2122 14.11 25.3022 14.14 25.3555 14.2C25.4155 14.2533 25.4455 14.3433 25.4455 14.47V15.64C25.4455 15.7667 25.4155 15.86 25.3555 15.92C25.3022 15.9733 25.2122 16 25.0855 16ZM24.5455 15H21.2755V12.41H23.7355V12.31H21.2755V9.8H24.5455V9.7H21.1755V15.1H24.5455V15Z" fill="white"/>
<path d="M13.7323 22C12.5942 22.6341 16.0084 25 16.0084 25C16.0084 25 19.4225 22.6341 18.2578 22" stroke="white" stroke-width="5" stroke-linecap="round"/>
</svg>
