<svg width="160" height="26" viewBox="0 0 160 26" fill="none" xmlns="http://www.w3.org/2000/svg">
<path d="M15.0188 9.78L13.9848 13.124H17.4388L16.4048 9.78C16.3461 9.648 16.2801 9.55267 16.2068 9.494C16.1481 9.43533 16.0748 9.406 15.9868 9.406H15.4368C15.3488 9.406 15.2681 9.43533 15.1948 9.494C15.1361 9.55267 15.0775 9.648 15.0188 9.78ZM13.7648 20.208C13.7648 20.4867 13.6988 20.692 13.5668 20.824C13.4495 20.9413 13.2515 21 12.9728 21H9.73879C9.46012 21 9.25479 20.9413 9.12279 20.824C9.00546 20.692 8.94679 20.4867 8.94679 20.208V14.4C8.94679 13.96 9.01279 13.454 9.14479 12.882C9.29146 12.31 9.51146 11.6427 9.80479 10.88L11.7188 5.886C11.8068 5.63667 11.9388 5.45333 12.1148 5.336C12.3055 5.21867 12.5475 5.16 12.8408 5.16H18.7588C19.0375 5.16 19.2648 5.21867 19.4408 5.336C19.6315 5.45333 19.7708 5.63667 19.8588 5.886L21.7728 10.88C22.0661 11.6427 22.2788 12.31 22.4108 12.882C22.5575 13.454 22.6308 13.96 22.6308 14.4V20.208C22.6308 20.4867 22.5648 20.692 22.4328 20.824C22.3155 20.9413 22.1175 21 21.8388 21H18.5168C18.2235 21 18.0035 20.9413 17.8568 20.824C17.7248 20.692 17.6588 20.4867 17.6588 20.208V17.128H13.7648V20.208ZM35.8851 21H30.5171C28.6838 21 27.3198 20.6333 26.4251 19.9C25.5451 19.1667 25.1051 18.0373 25.1051 16.512V9.67C25.1051 8.14467 25.5451 7.01533 26.4251 6.282C27.3198 5.534 28.6838 5.16 30.5171 5.16H35.8851C36.1638 5.16 36.3618 5.226 36.4791 5.358C36.6111 5.47533 36.6771 5.67333 36.6771 5.952V8.614C36.6771 8.89267 36.6111 9.098 36.4791 9.23C36.3618 9.34733 36.1638 9.406 35.8851 9.406H31.4631C31.0084 9.406 30.6711 9.50133 30.4511 9.692C30.2311 9.868 30.1211 10.1393 30.1211 10.506V15.742C30.1211 16.1087 30.2311 16.38 30.4511 16.556C30.6711 16.7173 31.0084 16.798 31.4631 16.798H35.8851C36.1638 16.798 36.3618 16.864 36.4791 16.996C36.6111 17.1133 36.6771 17.3113 36.6771 17.59V20.208C36.6771 20.4867 36.6111 20.692 36.4791 20.824C36.3618 20.9413 36.1638 21 35.8851 21ZM50.1616 21H39.9536C39.6749 21 39.4696 20.9413 39.3376 20.824C39.2202 20.692 39.1616 20.4867 39.1616 20.208V5.952C39.1616 5.67333 39.2202 5.47533 39.3376 5.358C39.4696 5.226 39.6749 5.16 39.9536 5.16H50.1616C50.4402 5.16 50.6382 5.226 50.7556 5.358C50.8876 5.47533 50.9536 5.67333 50.9536 5.952V8.526C50.9536 8.80467 50.8876 9.01 50.7556 9.142C50.6382 9.25933 50.4402 9.318 50.1616 9.318H44.0896V11.012H48.3796C48.6582 11.012 48.8562 11.078 48.9736 11.21C49.1056 11.3273 49.1716 11.5253 49.1716 11.804V14.158C49.1716 14.4367 49.1056 14.642 48.9736 14.774C48.8562 14.8913 48.6582 14.95 48.3796 14.95H44.0896V16.842H50.1616C50.4402 16.842 50.6382 16.908 50.7556 17.04C50.8876 17.1573 50.9536 17.3553 50.9536 17.634V20.208C50.9536 20.4867 50.8876 20.692 50.7556 20.824C50.6382 20.9413 50.4402 21 50.1616 21ZM71.9175 16.842C71.9175 17.5167 71.8148 18.1327 71.6095 18.69C71.4188 19.2327 71.0668 19.702 70.5535 20.098C70.0548 20.4793 69.3582 20.78 68.4635 21C67.5835 21.22 66.4615 21.33 65.0975 21.33C63.7335 21.33 62.6042 21.22 61.7095 21C60.8148 20.78 60.1108 20.4793 59.5975 20.098C59.0988 19.702 58.7468 19.2327 58.5415 18.69C58.3508 18.1327 58.2555 17.5167 58.2555 16.842V9.34C58.2555 8.66533 58.3508 8.05667 58.5415 7.514C58.7468 6.95667 59.0988 6.48 59.5975 6.084C60.1108 5.688 60.8148 5.38 61.7095 5.16C62.6042 4.94 63.7335 4.83 65.0975 4.83C66.4615 4.83 67.5835 4.94 68.4635 5.16C69.3582 5.38 70.0548 5.688 70.5535 6.084C71.0668 6.48 71.4188 6.95667 71.6095 7.514C71.8148 8.05667 71.9175 8.66533 71.9175 9.34V16.842ZM63.2495 16.05C63.2495 16.3433 63.3595 16.5927 63.5795 16.798C63.7995 16.9887 64.3055 17.084 65.0975 17.084C65.8895 17.084 66.3955 16.9887 66.6155 16.798C66.8355 16.5927 66.9455 16.3433 66.9455 16.05V10.132C66.9455 9.85333 66.8355 9.61867 66.6155 9.428C66.3955 9.22267 65.8895 9.12 65.0975 9.12C64.3055 9.12 63.7995 9.22267 63.5795 9.428C63.3595 9.61867 63.2495 9.85333 63.2495 10.132V16.05ZM78.9202 21H75.5102C75.2315 21 75.0262 20.9413 74.8942 20.824C74.7769 20.692 74.7182 20.4867 74.7182 20.208V5.952C74.7182 5.67333 74.7769 5.47533 74.8942 5.358C75.0262 5.226 75.2315 5.16 75.5102 5.16H85.3222C85.6009 5.16 85.7989 5.226 85.9162 5.358C86.0482 5.47533 86.1142 5.67333 86.1142 5.952V8.57C86.1142 8.84867 86.0482 9.054 85.9162 9.186C85.7989 9.30333 85.6009 9.362 85.3222 9.362H79.7122V11.65H83.5402C83.8189 11.65 84.0169 11.716 84.1342 11.848C84.2662 11.9653 84.3322 12.1633 84.3322 12.442V15.082C84.3322 15.3607 84.2662 15.566 84.1342 15.698C84.0169 15.8153 83.8189 15.874 83.5402 15.874H79.7122V20.208C79.7122 20.4867 79.6462 20.692 79.5142 20.824C79.3969 20.9413 79.1989 21 78.9202 21ZM102.284 21H93.8364C93.5577 21 93.3524 20.9413 93.2204 20.824C93.103 20.692 93.0444 20.4867 93.0444 20.208V5.952C93.0444 5.67333 93.103 5.47533 93.2204 5.358C93.3524 5.226 93.5577 5.16 93.8364 5.16H100.854C102.292 5.16 103.355 5.43867 104.044 5.996C104.734 6.53867 105.078 7.382 105.078 8.526V9.582C105.078 10.198 104.968 10.704 104.748 11.1C104.543 11.4813 104.22 11.7673 103.78 11.958C104.719 12.046 105.416 12.3687 105.87 12.926C106.325 13.4833 106.552 14.2973 106.552 15.368V17.392C106.552 18.624 106.2 19.5333 105.496 20.12C104.807 20.7067 103.736 21 102.284 21ZM97.9944 8.9V11.276H99.8644C100.143 11.276 100.348 11.2027 100.48 11.056C100.627 10.9093 100.7 10.6893 100.7 10.396V9.78C100.7 9.48667 100.627 9.26667 100.48 9.12C100.348 8.97333 100.143 8.9 99.8644 8.9H97.9944ZM97.9944 14.664V17.26H100.854C101.133 17.26 101.338 17.1867 101.47 17.04C101.617 16.8933 101.69 16.6733 101.69 16.38V15.522C101.69 15.2287 101.617 15.016 101.47 14.884C101.338 14.7373 101.133 14.664 100.854 14.664H97.9944ZM114.728 9.78L113.694 13.124H117.148L116.114 9.78C116.055 9.648 115.989 9.55267 115.916 9.494C115.857 9.43533 115.784 9.406 115.696 9.406H115.146C115.058 9.406 114.977 9.43533 114.904 9.494C114.845 9.55267 114.786 9.648 114.728 9.78ZM113.474 20.208C113.474 20.4867 113.408 20.692 113.276 20.824C113.158 20.9413 112.96 21 112.682 21H109.448C109.169 21 108.964 20.9413 108.832 20.824C108.714 20.692 108.656 20.4867 108.656 20.208V14.4C108.656 13.96 108.722 13.454 108.854 12.882C109 12.31 109.22 11.6427 109.514 10.88L111.428 5.886C111.516 5.63667 111.648 5.45333 111.824 5.336C112.014 5.21867 112.256 5.16 112.55 5.16H118.468C118.746 5.16 118.974 5.21867 119.15 5.336C119.34 5.45333 119.48 5.63667 119.568 5.886L121.482 10.88C121.775 11.6427 121.988 12.31 122.12 12.882C122.266 13.454 122.34 13.96 122.34 14.4V20.208C122.34 20.4867 122.274 20.692 122.142 20.824C122.024 20.9413 121.826 21 121.548 21H118.226C117.932 21 117.712 20.9413 117.566 20.824C117.434 20.692 117.368 20.4867 117.368 20.208V17.128H113.474V20.208ZM132.404 21H125.452C125.173 21 124.968 20.9413 124.836 20.824C124.719 20.692 124.66 20.4867 124.66 20.208V17.634C124.66 17.3553 124.719 17.1573 124.836 17.04C124.968 16.908 125.173 16.842 125.452 16.842H131.37C131.561 16.842 131.7 16.7833 131.788 16.666C131.891 16.534 131.942 16.38 131.942 16.204C131.942 15.9547 131.891 15.7713 131.788 15.654C131.7 15.5367 131.561 15.4707 131.37 15.456L128.07 14.994C127.043 14.8473 126.215 14.51 125.584 13.982C124.968 13.454 124.66 12.574 124.66 11.342V9.032C124.66 7.78533 125.063 6.832 125.87 6.172C126.677 5.49733 127.791 5.16 129.214 5.16H135.374C135.653 5.16 135.851 5.226 135.968 5.358C136.1 5.47533 136.166 5.67333 136.166 5.952V8.57C136.166 8.84867 136.1 9.054 135.968 9.186C135.851 9.30333 135.653 9.362 135.374 9.362H130.248C130.057 9.362 129.911 9.428 129.808 9.56C129.705 9.67733 129.654 9.83133 129.654 10.022C129.654 10.2127 129.705 10.374 129.808 10.506C129.911 10.638 130.057 10.7113 130.248 10.726L133.526 11.166C134.553 11.3127 135.381 11.65 136.012 12.178C136.643 12.706 136.958 13.586 136.958 14.818V17.128C136.958 18.3747 136.547 19.3353 135.726 20.01C134.919 20.67 133.812 21 132.404 21ZM150.365 21H140.157C139.878 21 139.673 20.9413 139.541 20.824C139.423 20.692 139.365 20.4867 139.365 20.208V5.952C139.365 5.67333 139.423 5.47533 139.541 5.358C139.673 5.226 139.878 5.16 140.157 5.16H150.365C150.643 5.16 150.841 5.226 150.959 5.358C151.091 5.47533 151.157 5.67333 151.157 5.952V8.526C151.157 8.80467 151.091 9.01 150.959 9.142C150.841 9.25933 150.643 9.318 150.365 9.318H144.293V11.012H148.583C148.861 11.012 149.059 11.078 149.177 11.21C149.309 11.3273 149.375 11.5253 149.375 11.804V14.158C149.375 14.4367 149.309 14.642 149.177 14.774C149.059 14.8913 148.861 14.95 148.583 14.95H144.293V16.842H150.365C150.643 16.842 150.841 16.908 150.959 17.04C151.091 17.1573 151.157 17.3553 151.157 17.634V20.208C151.157 20.4867 151.091 20.692 150.959 20.824C150.841 20.9413 150.643 21 150.365 21Z" fill="#1A4279"/>
</svg>
